<svg xmlns="http://www.w3.org/2000/svg" style="display: none;">
<svg version="1.1" xmlns="http://www.w3.org/2000/svg" x="0px" y="0px" viewBox="0 0 300 300" style="enable-background:new 0 0 300 300;" id="rd-icon-spotter">
  <path d="M 0 284.625 L 120.032 62.021 L 149.399 13.84 L 178.765 62.021 L 298.797 284.625 L 238.356 284.625 L 219.625 249.245 L 79.592 249.245 L 60.861 284.625 L 0 284.625 Z M 97.893 211.802 L 200.904 211.802 L 168.979 148.243 C 160.463 131.407 149.819 109.082 149.399 108.391 C 148.969 109.082 138.334 131.407 129.818 148.243 L 97.893 211.802 Z" fill="#00063A" style=""/>
</svg>

<svg version="1.1" xmlns="http://www.w3.org/2000/svg" x="0px" y="0px" viewBox="0 0 300 300" style="enable-background:new 0 0 300 300;" id="rd-icon-thoughtspot">
  <path d="M 0 284.625 L 120.032 62.021 L 149.399 13.84 L 178.765 62.021 L 298.797 284.625 L 238.356 284.625 L 219.625 249.245 L 79.592 249.245 L 60.861 284.625 L 0 284.625 Z M 97.893 211.802 L 200.904 211.802 L 168.979 148.243 C 160.463 131.407 149.819 109.082 149.399 108.391 C 148.969 109.082 138.334 131.407 129.818 148.243 L 97.893 211.802 Z" fill="#00063A" style=""/>
</svg>
</svg>