<svg version="1.1" xmlns="http://www.w3.org/2000/svg" xmlns:xlink="http://www.w3.org/1999/xlink" x="0px" y="0px"
viewBox="0 0 700 249.3" style="enable-background:new 0 0 700 249.3;"
xml:space="preserve" id="rd-icon-spotter">
<style type="text/css">
	.st0{fill:url(#SVGID_1_);}
</style>
<linearGradient id="SVGID_1_" gradientUnits="userSpaceOnUse" x1="571.6031" y1="-112.9478" x2="130.7332" y2="266.9693" gradientTransform="matrix(1 0 0 -1 0 251.096)">
	<stop  offset="0" style="stop-color:#F5882E"/>
	<stop  offset="1" style="stop-color:#ED2A5D"/>
</linearGradient>
<path class="st0" d="M666.7,193.4c-0.1,1.2,0.4,2.1,0.8,3c1.3,2.8,3.1,5.4,4.9,7.9c1.4,1.9,2.9,3.7,4.4,5.6c0.4,0.6,1,1.1,1,2.1
	c-0.5,0-1,0-1.4-0.1c-2.9-1.1-5.6-2.6-8.1-4.5c-2.2-1.7-4.2-3.6-6-5.8c-1.8-2.2-3.5-4.5-5.3-6.8c-0.4-0.6-0.9-1.1-1.4-1.8
	c-0.5,1.3,0,2.2,0.4,3.2c0.7,1.7,1.5,3.3,2.2,4.9c0.4,0.9,0.7,1.8,1,2.8c0.1,0.3,0,0.6,0,1.1c-0.4-0.1-0.8-0.1-1-0.3
	c-3.3-2.5-6.7-5-9.5-8c-1.7-1.9-3.2-3.9-4.2-6.3c-1.3-3-1.5-6-0.2-9c0.9-2.2,1.8-4.4,2.2-6.7c0.1-0.8,0.2-1.6,0.3-2.4
	c0.3-2.5-0.7-4.5-2.5-6.1c-0.5-0.5-1.1-0.9-1.6-1.3c-0.7,0.4-0.5,1-0.5,1.4c0.1,2.6-0.5,5-1.3,7.4c-1.5,4.7-4.6,8-8.9,10.2
	c-1,0.5-2.1,0.9-3.1,1.3c-2.3,0.9-4.4,2.1-6.3,3.7c-2.4,1.9-3.7,4.5-3.8,7.6c-0.1,2.1,0.2,4.2,0.8,6.3c0.8,2.9,1.5,5.8,2.5,8.7
	c0.8,2.4,0.5,4.5-0.8,6.7c-5.7,9-11.2,18-16.8,27c-0.2,0.4-0.4,0.7-0.7,1c-1.3,1.9-3.1,3-5.3,3c-3.6,0-7.2,0.5-10.7-0.3
	c-1-0.2-2.1-0.6-3-1.1c-1.7-1-2-2.8-0.8-4.4c0.4-0.5,0.8-1,1.3-1.4c5.7-4.3,10.1-9.7,14.3-15.4c2-2.7,3.9-5.4,6-8.1
	c1.2-1.5,1.5-3.1,1-5c-2.1-8.1-4.1-16.3-6.2-24.4c-0.3-1.3-0.8-2.5-1.2-3.7c-0.8-2.3-1.2-4.6-1.2-7c0.1-2,0.2-3.9,0.2-5.9
	c0-1.9,0-3.9-0.3-5.8c-0.7-3.7-2.6-6.8-5.5-9.3c-0.9-0.8-1.8-1.4-2.7-2.1c-6.3-4.7-12.6-9.3-18.9-14c-1.6-1.1-2.7-2.5-3.6-4.2
	c-1.9-3.6-4-7.1-6-10.7c-1.8-3.2-3.3-6.6-4.2-10.2c-0.4-1.6-1.3-2.6-2.6-3.3c-0.4-0.2-0.9-0.5-1.3-0.7c-4.3-1.9-7-5.2-8.2-9.7
	c-1.4-5.4-4-10.3-7-15c-0.8-1.2-1.6-2.3-3.1-2.8c-1,0.1-1.7,0.9-2.2,1.7c-1.7,3.1-2.5,6.3-1.6,9.9c0.2,1,0.6,1.9,1.3,2.6
	c0.3,0.3,0.6,0.6,0.8,0.9c1.1,1.2,1.5,2.4,0.8,4c-1.1,2.5-2,5-2.9,7.5c-0.1,0.3-0.3,0.6-0.5,0.8c-0.2,0.3-0.8,0.4-1.1,0
	c-0.3-0.4-0.6-0.8-0.8-1.2c-1.9-4.6-3.7-9.2-5.6-13.8c-0.8-2-0.9-4-0.2-6c0.4-1.2,0.7-2.3,1.2-3.5c1.2-2.5,2.4-5,3.7-7.4
	c1.2-2.3,3-3.9,5.5-4.5c1-0.2,2.1-0.2,3.2-0.3c0.3-0.5,0-0.7-0.3-1c-2.6-2.7-5.6-3.6-9.5-1.7c-1.5,0.7-2.9,1.5-4.4,2.1
	c-1.5,0.6-2.3,1.5-2.1,3.1c0.2,1.6-0.6,2.8-1.8,3.5c-2.8,1.8-5.8,3.4-8.7,5c-0.4,0.2-0.9,0.3-1.4,0.4c-0.6,0.2-1.1,0-1.6-0.5
	c-1.8-2-2-3.6-0.8-5.5c2.2-3.7,4.4-7.4,6.5-11.2c0.8-1.4,2-2.4,3.5-2.9c4.3-1.4,8.7-2.7,13-4.1c5.2-1.6,12.1,1,15.3,5.7
	c0.9,1.4,1.8,2.9,2.8,4.3c1.2,1.8,2.5,3.6,3.8,5.4c0.3,0.4,0.6,0.7,1,1.1c0.3-0.3,0.5-0.5,0.7-0.8c2.6-4,6.2-6.9,10.5-8.9
	c2.7-1.3,5.4-2.7,8.1-4c2.2-1.1,3.8-2.7,5-4.9c1.1-2.1,2.3-4.1,3.5-6.2c0.1-0.3,0.2-0.6,0.5-1.3c-0.6,0.4-0.9,0.6-1.2,0.8
	c-0.7,0.5-1.4,1.1-2.1,1.6c-0.9,0.7-1.8,1-3,0.9c-2.3-0.3-4.4,0.3-6.4,1.2c-1.9,0.8-3.8,1.5-5.7,2.2c-1.2,0.4-2.2,1.1-3,2
	c-1.6,1.9-3.7,2.9-6.2,3c-1.4,0-2.8,0-4.1,0c-1.3,0-2.1-0.7-2.6-1.8c-1.1-2.4-1.4-4.9-0.1-7.3c0.6-1.1,1.4-2.2,2.1-3.3
	c1.4-1.8,2.8-3.6,4.2-5.4c1.5-2,2.7-4.1,3.6-6.4c1.2-3,2.7-5.7,4.5-8.4c0.1-0.2,0.3-0.4,0.4-0.6c1.1-1.5,1-2.9-0.2-4.2
	c-0.3-0.4-0.6-0.8-0.9-1.2c-5.9-7.9-11.8-15.8-17.7-23.7c-0.4-0.6-0.9-1.2-1.2-1.8c-0.1-0.3-0.1-0.6-0.2-0.8c0.4-0.4,0.7-0.2,1,0
	c0.5,0.4,1,0.8,1.5,1.2c8.9,7.1,17.8,14.3,26.7,21.4c2.7,2.2,4.9,2.5,7.9,0.3c2.9-2.1,6.1-3.8,9.7-4.6c1.4-0.3,2.9-0.5,4.3-0.7
	c0.5-0.1,1.1,0,1.6,0c0.3,0.7-0.1,0.9-0.4,1.1c-1.4,0.9-2.8,1.7-4.2,2.5c-0.3,0.2-0.7,0.4-1.1,1.1c1.2-0.3,1.9-0.5,2.7-0.7
	c3.9-1.1,7.8-1.9,11.8-1.6c3.8,0.2,7.3,1.4,10.6,3.4c0.2,0.1,0.3,0.3,0.5,0.5c0,0,0,0.2,0,0.4c-0.6,0.5-1.3,0.2-2,0.2
	c-2.2-0.1-4.4-0.2-6.6-0.3c-0.4,0-0.7,0.1-1.5,0.3c1,0.7,1.8,0.8,2.5,0.9c2.6,0.5,5.1,0.9,7.6,1.5c6.6,1.6,11.1,5.9,14,11.9
	c0.1,0.2,0,0.4,0,0.8c-1.3-0.4-2.2-1.3-3.2-2c-1-0.6-2.1-1.3-3.1-1.9c-1-0.6-2.2-1-3.9-1.2c0.9,0.8,1.4,1.2,1.9,1.6
	c2.3,1.9,4.4,3.9,6.2,6.3c2.5,3.3,4.2,7,5,11c0.2,1,0.4,2.1,0.1,3.1c-0.6,0.3-0.9-0.1-1.1-0.4c-1.3-1.6-2.6-3.4-4-4.9
	c-1.4-1.6-3-3-4.5-4.5c-0.3-0.3-0.7-0.5-1.6-1c0.5,1.1,0.8,1.6,1.1,2.2c1.5,2.6,3,5.2,4.6,7.8c2.4,4.1,3.4,8.6,3.5,13.3
	c0,2.1,0.1,4.2,0,6.4c-0.2,4-1.2,7.7-3.3,11.2c-0.4,0.6-0.6,1.4-1.7,1.4c-0.1-0.4-0.2-0.7-0.3-1.1c-0.2-1.9-0.3-3.7-0.4-5.6
	c-0.3-3.1-0.9-6.1-2.6-8.8c-0.2-0.3-0.5-0.6-0.8-0.9c-0.1-0.1-0.3-0.1-0.4-0.1c-0.4,0.2-0.3,0.6-0.3,0.9c0.1,2.3,0.1,4.6,0.2,6.8
	c0.1,4.2,0.1,8.3-0.7,12.4c-0.7,3.6-2.2,6.8-4.5,9.7c-0.3,0.4-0.8,0.8-1.1,1.1c-0.8-0.2-0.7-0.8-0.7-1.2c0-1.7,0.1-3.4,0.1-5.1
	c0-2-0.4-3.9-1-5.8c-0.4-1.1-0.9-2.3-1.7-3.2c-0.7,0.1-0.7,0.7-0.8,1.1c-1.8,4.8-2,9.7-1.9,14.7c0,0.5,0.1,1,0.1,1.5
	c-0.2,3.1,0.6,6,1.8,8.8c1.3,3.3,2.6,6.5,4.3,9.6c2,3.4,4.4,6.5,7.9,8.5c0.9,0.5,1.8,1.2,2.7,1.7c7.3,4.2,13,10,17.6,17.1
	c0.5,0.8,1,1.5,1.5,2.3c1.1,1.6,2.5,2.4,4.5,2.6c4.8,0.5,9.5,1,14.3,1.9c11.3,2.2,18.9,8.8,22.8,19.5c1.7,4.7,3.5,9.3,5.6,13.8
	c1,2.1,2.2,4,3.7,5.8c1,1.3,2.1,2.5,3.1,3.8c0.3,0.3,0.5,0.6,0.8,1c0.3,0.4,0.6,0.8,0.3,1.3c-0.2,0.4-0.7,0.4-1.6,0.1
	c-0.5-0.2-0.9-0.4-1.3-0.6c-1.5-0.7-3-1.4-4.4-2.1c-0.4-0.2-0.9-0.4-1.6-0.7c0.2,0.6,0.3,1,0.5,1.3c0.6,0.8,1.1,1.6,1.8,2.3
	c2.6,3,5.3,6,7.9,9c0.6,0.7,1.3,1.5,1.8,2.3c0.2,0.3,0.3,0.7,0.5,1.2c-0.5,0.2-0.9,0.3-1.2,0.4c-0.1,0-0.2,0-0.2,0
	c-6.1,0.4-6.4,0.3-11.9-2.5c-2-1-4-2.2-6.1-3.2c-1.7-0.9-3.1-2.1-4.2-3.6c-2.8-3.8-5.7-7.6-8.5-11.4
	C667.4,194.3,667,193.8,666.7,193.4L666.7,193.4L666.7,193.4z M563.4,43.5c1.7,0.6,2.7,0.2,3.6-0.7c0.6-0.6,1.2-1.3,0.8-2.5
	C566.3,41.3,564.9,42.2,563.4,43.5C563.4,43.5,563.4,43.5,563.4,43.5z M134.7,125.5c0.8-0.1,1.2-0.2,1.7-0.2c12.2,0,24.5,0,36.6,0.1
	c0.8,0.7,0.6,1.5,0.6,2.2c-0.2,2.9-0.4,4.1-0.6,7c-0.3,3.8-0.5,6.9-0.8,10.8c-0.3,3.5-0.5,7-0.8,10.5c-0.2,2.6-0.4,5.2-0.6,7.8
	c-0.2,3.7-0.4,7.5-0.6,11.2c-0.3,5.9-0.6,11.9-0.7,17.9c-0.1,4.4,0.1,8.8,1.2,13.1c1.5,5.9,5,9.7,10.8,11.6
	c5.3,1.6,10.5,1.9,15.9,0.5c4.8-1.2,8.3-4,10.7-8.3c2.2-3.8,3.4-7.9,4-12.2c0.7-5.5,1.2-11,1.5-16.6c0.4-5.9,0.9-11.9,1.3-17.8
	c0.2-2.9,0.4-5.7,0.5-8.5c0.2-4.5,0.4-9,0.6-13.4c0.3-5.3,0.6-8.1,0.9-13.4c0-0.4,0.1-0.8,0.1-1.2c0.1-0.6,0.5-1,1.1-1.1
	c0.6,0,1.1,0,1.7,0h34.3c0.8,0,1.6,0.1,2.3,0.1c0.6,0.9,0.4,1.7,0.4,2.5c-0.2,3-0.4,4.3-0.6,7.3c-0.2,3.3-0.5,6-0.8,9.3
	c-0.5,6.8-1,13.5-1.4,20.3c-0.2,3.3-0.4,6.7-0.6,10c-0.2,3.6-0.5,7.2-0.8,10.7c-0.1,1.9-0.2,3.7-0.2,5.6c0,5.9-0.4,11.7-1.1,17.6
	c-0.4,3.5-1.1,6.9-2.3,10.2c-2.2,6.2-5.9,11.4-11.3,15.4c-5.4,4-11.3,6.8-17.7,8.7c-3.9,1.2-7.9,2-11.9,2.6
	c-6.9,1-13.8,1.5-20.7,1.4c-4.5,0-8.9-0.4-13.4-0.9c-5.1-0.5-10.1-1.6-15-3.1c-4.4-1.3-8.6-3.1-12.5-5.4c-2.1-1.3-4.1-2.7-6-4.2
	c-4.8-3.7-7.8-8.7-9.3-14.6c-1.5-5.7-1.7-11.4-1.3-17.2c0.3-3.8,0.5-7.6,0.8-11.5c0.2-3.3,0.5-6.5,0.8-9.7c0.2-2.3,0.4-4.5,0.6-6.8
	c0.2-3.7,0.4-7.5,0.6-11.2c0.3-5.2,0.5-10.4,0.8-15.6c0-0.4,0-0.8,0.1-1.2c0.2-5.5,0.4-8.5,0.7-13.9
	C134.4,129.6,134.5,127.7,134.7,125.5L134.7,125.5L134.7,125.5z M461.6,178.6c0.9,0,1.5-0.1,2,0c4.1,0.7,8.3,0.7,12.4,0.3
	c3-0.3,5.9-1.1,8.7-2.4c5.3-2.5,9.2-8.4,8.5-15c-0.4-3.4-1.9-6-4.8-7.8c-1.9-1.2-4-1.9-6.2-2.2c-2.2-0.4-4.4-0.5-6.6-0.6
	c-4.7-0.1-9.5,0-14.2,0c-1.2,0-2.4,0-3.6,0.6c-0.1,0.3-0.2,0.5-0.2,0.7c-0.2,2.9-0.4,5.9-0.5,8.8c-0.3,5.5-0.6,10.9-0.8,16.4
	c0,0.3,0,0.7-0.1,1c-0.2,6.4-0.4,12.9-0.6,19.3c-0.3,9-0.6,17.9-0.8,26.9c-0.2,6.4-0.1,12.7-0.2,19.1c0,1,0.2,2-0.5,3
	c-0.5,0.1-1.2,0.2-1.8,0.2c-15.3,0.2-34,0.1-36.1-0.3c-0.1-1.3,0-2.7,0.2-4.1c0.3-2.7,0.5-5.4,0.8-8c0.3-2.6,0.5-5.2,0.8-7.8
	c0.2-2.1,0.4-4.2,0.6-6.3c0.2-3.1,0.4-6.2,0.6-9.3c0.3-4.3,0.5-8.6,0.8-12.9c0.1-0.8,0.1-1.6,0.1-2.4c0.2-6.4,0.5-12.9,0.7-19.3
	c0.3-9.5,0.6-18.9,0.8-28.4c0.1-6.6,0.1-13.2,0.2-19.8c0-1-0.2-2,0.7-3c0.8,0,1.6-0.1,2.5-0.1c9.8,0,19.6,0,29.4,0
	c2.7,0,5.4-0.3,8.1-0.4c8.2-0.1,16.3-0.1,24.5,0c3.7,0.1,7.5,0.6,11.2,0.9c4.1,0.3,8,1.2,11.9,2.5c4.5,1.6,8.6,3.9,12.1,7.2
	c4.2,4,6.7,8.8,7.8,14.4c1.5,7.1,1.1,14.1-1.4,21c-2.6,7.3-7.4,13-14.1,16.9c-3,1.8-6.2,3.3-9.4,4.6c-0.7,0.3-1.4,0.7-2.3,1.1
	c0.3,0.9,0.6,1.6,0.9,2.4c4.9,12.7,10.8,25,16.4,37.4c1.7,3.7,3.4,7.4,5,11.2c0.3,0.7,0.8,1.4,0.6,2.3c-0.2,0.1-0.4,0.2-0.6,0.2
	c-13.3,0-26.6,0-39.8,0c-1-0.7-1.1-1.8-1.3-2.7c-1.6-5.1-3-10.3-4.7-15.4c-2.5-7.6-5.1-15.1-7.8-22.7c-3-8.3-6-16.5-9-24.8
	C462.2,180.5,462,179.7,461.6,178.6L461.6,178.6L461.6,178.6z M407.1,246.6c-0.3,0.1-0.6,0.2-0.9,0.2c-13.2,0-26.4,0-39.8,0
	c-0.3-0.9-0.6-1.6-0.8-2.4c-2.8-9.9-6.1-19.6-9.6-29.3c-0.3-0.8-0.7-1.6-1-2.4c-2-0.3-41.1-0.4-44.2-0.1c-0.8,0.6-1.1,1.6-1.5,2.5
	c-4.5,9.6-8.9,19.2-13.4,28.9c-0.4,1-0.7,2-1.5,2.7c-2.3,0.2-40.3,0.2-41.8-0.1c-0.3-0.7,0.2-1.2,0.5-1.8c1.7-2.9,3.4-5.8,5-8.7
	c4-7.5,8-14.9,12-22.4c11.1-20.8,22.2-41.6,33.1-62.5c4.1-7.8,7.9-15.7,11.9-23.6c1.4-2.8,1.1-2.5,4-2.5h43.1c1,0.7,1.1,1.6,1.4,2.5
	c2.6,7.5,5.2,14.9,7.9,22.4c6.2,17.2,12.5,34.3,18.8,51.4c3.8,10.3,7.6,20.6,11.5,31c1.5,3.9,3,7.7,4.5,11.6
	C406.7,244.8,407.2,245.6,407.1,246.6L407.1,246.6L407.1,246.6z M322,185.7c0.9,0.1,1.4,0.3,1.9,0.3c7.5,0,15,0,22.5,0
	c0.5,0,1.1-0.2,1.8-0.3c-0.2-0.8-0.4-1.6-0.6-2.2c-3.2-9.7-6.4-19.5-9.6-29.2c-0.1-0.4-0.1-0.8-0.7-0.8
	C332.2,164.1,327.2,174.7,322,185.7L322,185.7L322,185.7z M113.3,125.5c0,0.7,0,1.3,0,1.8c-0.5,6.8-0.8,13.7-0.9,20.5
	c-0.1,5.2,0.3,3.8-3.1,7.2c-2.3,2.4-4.7,4.7-7,7.2c-17.1,18.7-34.3,37.4-51.4,56.2c-0.4,0.4-0.7,0.8-1.1,1.2
	c0.3,0.6,0.7,0.5,1.1,0.5c9.6,0,19.3,0,28.9-0.1c6.6-0.1,13.2-0.3,19.8-0.5c1.9-0.1,3.7-0.3,5.6-0.4c0.8,0,1.6,0,2.5,0.1
	c0.1,0.8,0.2,1.4,0.2,2c-0.2,4-0.5,8-0.7,12c-0.1,1.6-0.1,3.3-0.2,4.9c-0.1,2.8-0.3,5.5-0.4,8.1c-0.8,0.8-1.5,0.6-2.2,0.6
	c-4.4,0-8.8,0-13.2,0H3.3c-1,0-2.1,0.2-3.2-0.2c-0.1-0.3-0.2-0.7-0.2-1c0.1-2.3,0.1-4.6,0.2-6.8c0.2-3.7,0.3-7.5,0.5-11.2
	c0.1-2.1,0.3-4.2,0.2-6.4c0-1.3,0.4-2.2,1.3-3c6.2-5.9,11.9-12.4,17.7-18.6c10.6-11.4,21.2-22.8,31.8-34.3c3.7-4,7.2-8.2,10.8-12.3
	c0.3-0.4,0.6-0.8,0.8-1.1c-0.3-0.6-0.7-0.5-1.1-0.5c-12,0-24-0.1-36,0c-4.9,0-9.8,0.5-14.7,0.8c-1.1,0.1-2.1,0.3-3.3-0.1
	c-0.1-0.5-0.2-1.1-0.2-1.6c0.5-7.8,0.9-15.6,0.6-23.5c0-0.5,0.1-1,0.1-1.5c0.9-0.6,1.8-0.4,2.6-0.4c6.3,0,12.6,0,18.8,0
c26.4,0,52.9,0,79.3,0C110.8,125.2,111.9,125,113.3,125.5L113.3,125.5L113.3,125.5z"/>
</svg>